<svg width="20" height="20" viewBox="0 0 20 20" fill="black" xmlns="http://www.w3.org/2000/svg">
<path d="M8.45707 0.878906C9.43363 3.49609 8.92582 4.92188 7.83206 6.05469C6.64066 7.30469 4.78518 8.24219 3.47659 10.0781C1.7383 12.5195 1.44534 17.8906 7.71488 19.2969C5.07815 17.9102 4.51175 13.8867 7.36331 11.3672C6.62112 13.8086 7.98831 15.3711 9.68754 14.8047C11.3477 14.2383 12.4414 15.4297 12.4024 16.7969C12.3829 17.7344 12.0118 18.5352 11.0547 18.9844C15.1368 18.2617 16.7774 14.8828 16.7774 12.3047C16.7774 8.90625 13.75 8.4375 15.2735 5.58594C13.4571 5.74219 12.8321 6.93359 13.0079 8.88672C13.125 10.1758 11.7774 11.0547 10.7813 10.4688C9.9805 9.98047 10 9.04297 10.7032 8.33984C12.2071 6.85547 12.793 3.4375 8.45707 0.878906Z" />
</svg>
